<?xml version="1.0" encoding="utf-8"?>
<!-- Generator: Adobe Illustrator 26.0.1, SVG Export Plug-In . SVG Version: 6.00 Build 0)  -->
<svg version="1.1" id="Layer_1" xmlns="http://www.w3.org/2000/svg" xmlns:xlink="http://www.w3.org/1999/xlink" x="0px" y="0px"
	 viewBox="0 0 450 371" style="enable-background:new 0 0 450 371;" xml:space="preserve">
<style type="text/css">
	.st0{fill:#F4F4F4;}
	.st1{fill:#FF5436;}
</style>
<g>
	<path class="st0" d="M402,371H48c-26.51,0-48-21.49-48-48V48C0,21.49,21.49,0,48,0h354c26.51,0,48,21.49,48,48v275
		C450,349.51,428.51,371,402,371z"/>
	<g>
		<path class="st1" d="M235.06,208.94H116.43v126.01H60.28V33.62h56.15v125.1h118.63V33.62h56.15v301.34h-56.15V208.94z"/>
		<path class="st1" d="M335.8,99.14c-9.51,0-17.55-3.35-24.11-10.04c-6.57-6.7-9.85-14.69-9.85-23.97c0-9.28,3.32-17.35,9.96-24.2
			c6.64-6.85,14.64-10.27,24-10.27c6.19,0,11.85,1.56,16.98,4.68c5.13,3.12,9.28,7.27,12.45,12.44c3.17,5.18,4.75,10.96,4.75,17.35
			c0,9.28-3.36,17.27-10.07,23.97C353.19,95.79,345.16,99.14,335.8,99.14z M306.37,334.96V147.53h57.28v187.42H306.37z"/>
		<path class="st1" d="M356.17,147.53h61.58l50.94,134.46l50.94-134.46h61.35l-78.56,187.42h-67.47L356.17,147.53z"/>
	</g>
</g>
</svg>
