<?xml version="1.0" encoding="utf-8"?>
<!-- Generator: Adobe Illustrator 26.0.1, SVG Export Plug-In . SVG Version: 6.00 Build 0)  -->
<svg version="1.1" id="Layer_1" xmlns="http://www.w3.org/2000/svg" xmlns:xlink="http://www.w3.org/1999/xlink" x="0px" y="0px"
	 viewBox="0 0 782.33 353.75" style="enable-background:new 0 0 782.33 353.75;" xml:space="preserve">
<style type="text/css">
	.st0{fill:#FF5436;}
	.st1{fill:#414042;}
</style>
<g>
	<g>
		<path class="st0" d="M200.83,199.99H68.83v139.05H6.36V6.53h62.47v138.04h131.99V6.53h62.47v332.5h-62.47V199.99z"/>
		<path class="st0" d="M312.91,78.82c-10.58,0-19.52-3.69-26.83-11.08c-7.31-7.39-10.96-16.2-10.96-26.45
			c0-10.24,3.69-19.14,11.08-26.7c7.39-7.56,16.29-11.34,26.7-11.34c6.88,0,13.18,1.72,18.89,5.16c5.71,3.44,10.33,8.02,13.85,13.73
			c3.53,5.71,5.29,12.09,5.29,19.14c0,10.25-3.74,19.06-11.21,26.45C332.27,75.13,323.32,78.82,312.91,78.82z M280.17,339.03V132.23
			h63.73v206.81H280.17z"/>
		<path class="st0" d="M335.58,132.23h68.52l56.68,148.37l56.68-148.37h68.26l-87.41,206.81h-75.07L335.58,132.23z"/>
		<path class="st0" d="M620.73,249.86c0.5,9.41,3.02,17.8,7.56,25.19c4.53,7.39,11.12,13.18,19.77,17.38
			c8.65,4.2,19.1,6.3,31.36,6.3c10.75,0,20.28-1.34,28.59-4.03c8.31-2.68,15.37-5.96,21.16-9.82c5.79-3.86,10.03-7.72,12.72-11.59
			l26.7,39.04c-4.87,6.05-11.17,11.55-18.89,16.5c-7.73,4.96-17.59,8.9-29.6,11.84c-12.01,2.94-27,4.41-44.96,4.41
			c-22.67,0-42.57-4.45-59.7-13.35c-17.13-8.9-30.52-21.75-40.18-38.54c-9.66-16.79-14.48-36.78-14.48-59.95
			c0-20.15,4.32-38.33,12.97-54.54c8.65-16.2,21.16-29.01,37.53-38.41c16.37-9.4,36.06-14.11,59.07-14.11
			c21.66,0,40.43,4.16,56.3,12.47c15.87,8.31,28.17,20.45,36.9,36.4c8.73,15.96,13.1,35.43,13.1,58.44c0,1.35-0.04,4.12-0.13,8.31
			c-0.09,4.2-0.29,6.89-0.63,8.06H620.73z M716.7,210.31c-0.17-5.37-1.81-11.17-4.91-17.38c-3.11-6.21-7.98-11.5-14.61-15.87
			c-6.64-4.36-15.33-6.55-26.07-6.55c-10.92,0-19.86,2.14-26.83,6.42c-6.97,4.28-12.18,9.45-15.62,15.49
			c-3.44,6.05-5.5,12.01-6.17,17.88H716.7z"/>
	</g>
</g>
</svg>
