<?xml version="1.0" encoding="utf-8"?>
<!-- Generator: Adobe Illustrator 26.0.1, SVG Export Plug-In . SVG Version: 6.00 Build 0)  -->
<svg version="1.1" id="Layer_1" xmlns="http://www.w3.org/2000/svg" xmlns:xlink="http://www.w3.org/1999/xlink" x="0px" y="0px"
	 viewBox="0 0 859.33 458.75" style="enable-background:new 0 0 859.33 458.75;" xml:space="preserve">
<style type="text/css">
	.st0{fill:#FF5436;}
	.st1{fill:#414042;}
</style>
<g>
	<g>
		<path class="st0" d="M250.83,198.1H118.83v139.05H56.36V4.65h62.47v138.04h131.99V4.65h62.47v332.5h-62.47V198.1z"/>
		<path class="st0" d="M362.91,76.94c-10.58,0-19.52-3.69-26.83-11.08c-7.31-7.39-10.96-16.2-10.96-26.45
			c0-10.24,3.69-19.14,11.08-26.7c7.39-7.56,16.29-11.34,26.7-11.34c6.88,0,13.18,1.72,18.89,5.16c5.71,3.44,10.33,8.02,13.85,13.73
			c3.53,5.71,5.29,12.09,5.29,19.14c0,10.25-3.74,19.06-11.21,26.45C382.27,73.25,373.32,76.94,362.91,76.94z M330.17,337.15V130.34
			h63.73v206.81H330.17z"/>
		<path class="st0" d="M385.58,130.34h68.52l56.68,148.37l56.68-148.37h68.26l-87.41,206.81h-75.07L385.58,130.34z"/>
		<path class="st0" d="M670.73,247.98c0.5,9.41,3.02,17.8,7.56,25.19c4.53,7.39,11.12,13.18,19.77,17.38
			c8.65,4.2,19.1,6.3,31.36,6.3c10.75,0,20.28-1.34,28.59-4.03c8.31-2.68,15.37-5.96,21.16-9.82c5.79-3.86,10.03-7.72,12.72-11.59
			l26.7,39.04c-4.87,6.05-11.17,11.55-18.89,16.5c-7.73,4.96-17.59,8.9-29.6,11.84c-12.01,2.94-27,4.41-44.96,4.41
			c-22.67,0-42.57-4.45-59.7-13.35c-17.13-8.9-30.52-21.75-40.18-38.54c-9.66-16.79-14.48-36.78-14.48-59.95
			c0-20.15,4.32-38.33,12.97-54.54c8.65-16.2,21.16-29.01,37.53-38.41c16.37-9.4,36.06-14.11,59.07-14.11
			c21.66,0,40.43,4.16,56.3,12.47c15.87,8.31,28.17,20.45,36.9,36.4c8.73,15.96,13.1,35.44,13.1,58.44c0,1.35-0.04,4.12-0.13,8.31
			c-0.09,4.2-0.29,6.89-0.63,8.06H670.73z M766.7,208.43c-0.17-5.37-1.81-11.17-4.91-17.38c-3.11-6.21-7.98-11.5-14.61-15.87
			c-6.64-4.36-15.33-6.55-26.07-6.55c-10.92,0-19.86,2.14-26.83,6.42c-6.97,4.28-12.18,9.45-15.62,15.49
			c-3.44,6.05-5.5,12.01-6.17,17.88H766.7z"/>
	</g>
	<g>
		<path class="st1" d="M23.13,446.74c-4.08,0.05-7.63-0.58-10.64-1.89c-3.01-1.32-5.88-3.32-8.62-6.01
			c-0.27-0.27-0.5-0.56-0.69-0.89c-0.19-0.32-0.28-0.7-0.28-1.13c0-0.65,0.25-1.24,0.77-1.77c0.51-0.54,1.09-0.81,1.73-0.81
			c0.64,0,1.24,0.27,1.77,0.81c2.1,2.26,4.47,3.98,7.13,5.16c2.66,1.18,5.52,1.77,8.58,1.77c2.58,0,4.88-0.4,6.89-1.21
			c2.02-0.81,3.61-1.96,4.8-3.47c1.18-1.5,1.77-3.25,1.77-5.24c-0.05-2.47-0.74-4.46-2.06-5.96c-1.32-1.5-3.08-2.77-5.28-3.79
			c-2.2-1.02-4.65-1.91-7.34-2.66c-2.2-0.7-4.31-1.46-6.33-2.3c-2.02-0.83-3.79-1.85-5.32-3.06c-1.53-1.21-2.73-2.7-3.59-4.47
			c-0.86-1.77-1.29-3.9-1.29-6.37c0-2.85,0.75-5.39,2.26-7.62c1.5-2.23,3.64-3.98,6.41-5.24c2.77-1.26,5.98-1.89,9.63-1.89
			c3.17,0,6.22,0.54,9.15,1.61c2.93,1.08,5.25,2.66,6.97,4.76c0.81,0.86,1.21,1.64,1.21,2.34c0,0.59-0.27,1.14-0.81,1.65
			c-0.54,0.51-1.13,0.77-1.77,0.77c-0.54,0-0.99-0.19-1.37-0.56c-0.91-1.13-2.07-2.14-3.47-3.02c-1.4-0.89-2.94-1.57-4.63-2.06
			c-1.69-0.48-3.45-0.72-5.28-0.72c-2.53,0-4.8,0.39-6.81,1.17c-2.02,0.78-3.6,1.89-4.76,3.35c-1.16,1.45-1.73,3.22-1.73,5.32
			c0,2.26,0.65,4.1,1.93,5.52c1.29,1.42,2.98,2.61,5.08,3.55c2.1,0.94,4.32,1.81,6.69,2.62c2.31,0.64,4.53,1.38,6.65,2.22
			c2.12,0.83,4,1.87,5.64,3.1c1.64,1.24,2.93,2.79,3.87,4.67c0.94,1.88,1.41,4.25,1.41,7.09c0,2.74-0.78,5.21-2.34,7.42
			c-1.56,2.2-3.7,3.95-6.41,5.24C29.97,446.02,26.79,446.69,23.13,446.74z"/>
		<path class="st1" d="M66.42,404.42c3.39,0,6.13,0.73,8.22,2.18s3.64,3.41,4.64,5.88c0.99,2.47,1.49,5.21,1.49,8.22v22.81
			c0,0.64-0.24,1.21-0.73,1.69c-0.48,0.48-1.05,0.73-1.69,0.73c-0.75,0-1.36-0.24-1.81-0.73c-0.46-0.48-0.69-1.05-0.69-1.69v-22.81
			c0-2.2-0.34-4.18-1.01-5.92c-0.67-1.75-1.75-3.16-3.22-4.23c-1.48-1.07-3.48-1.61-6.01-1.61c-2.26,0-4.39,0.54-6.41,1.61
			c-2.02,1.08-3.64,2.49-4.88,4.23c-1.24,1.75-1.85,3.72-1.85,5.92v22.81c0,0.64-0.24,1.21-0.73,1.69
			c-0.48,0.48-1.05,0.73-1.69,0.73c-0.75,0-1.36-0.24-1.81-0.73c-0.46-0.48-0.69-1.05-0.69-1.69v-54.81c0-0.65,0.24-1.21,0.73-1.69
			c0.48-0.48,1.07-0.73,1.77-0.73c0.7,0,1.28,0.24,1.73,0.73c0.46,0.48,0.69,1.05,0.69,1.69v26.12l-1.85,2.82
			c0.11-1.67,0.63-3.29,1.57-4.88c0.94-1.58,2.16-3.01,3.67-4.27c1.5-1.26,3.17-2.26,5-2.98C62.68,404.79,64.54,404.42,66.42,404.42
			z"/>
		<path class="st1" d="M123.17,404.75c0.7,0,1.28,0.24,1.73,0.73c0.46,0.48,0.69,1.08,0.69,1.77v36.27c0,0.64-0.24,1.21-0.73,1.69
			c-0.48,0.48-1.05,0.73-1.69,0.73c-0.75,0-1.34-0.24-1.77-0.73c-0.43-0.48-0.64-1.05-0.64-1.69v-9.59l1.37-0.56
			c0,1.45-0.42,2.97-1.25,4.55c-0.83,1.59-1.97,3.04-3.43,4.35c-1.45,1.32-3.16,2.39-5.12,3.22c-1.96,0.83-4.07,1.25-6.33,1.25
			c-3.66,0-6.92-0.94-9.79-2.82c-2.88-1.88-5.13-4.46-6.77-7.74c-1.64-3.28-2.46-6.96-2.46-11.04c0-4.19,0.83-7.89,2.5-11.08
			c1.67-3.2,3.92-5.71,6.77-7.54c2.85-1.83,6.05-2.74,9.59-2.74c2.31,0,4.47,0.4,6.49,1.21s3.77,1.91,5.28,3.3
			c1.5,1.4,2.69,3,3.55,4.8c0.86,1.8,1.29,3.67,1.29,5.6l-1.69-1.21v-10.24c0-0.7,0.21-1.29,0.64-1.77
			C121.82,404.99,122.41,404.75,123.17,404.75z M106.4,442.23c2.85,0,5.37-0.74,7.58-2.22c2.2-1.48,3.94-3.52,5.2-6.13
			c1.26-2.61,1.89-5.52,1.89-8.75c0-3.12-0.63-5.95-1.89-8.5c-1.26-2.55-3-4.57-5.2-6.04c-2.2-1.48-4.73-2.22-7.58-2.22
			c-2.79,0-5.31,0.71-7.54,2.14c-2.23,1.42-3.98,3.4-5.24,5.92c-1.26,2.53-1.89,5.43-1.89,8.71c0,3.22,0.63,6.14,1.89,8.75
			c1.26,2.61,3,4.65,5.2,6.13C101.03,441.49,103.55,442.23,106.4,442.23z"/>
		<path class="st1" d="M136.63,445.94c-0.75,0-1.36-0.24-1.81-0.73c-0.46-0.48-0.69-1.05-0.69-1.69v-36.11
			c0-0.64,0.24-1.21,0.73-1.69c0.48-0.48,1.07-0.73,1.77-0.73c0.7,0,1.28,0.24,1.73,0.73c0.46,0.48,0.69,1.05,0.69,1.69v12.09
			l-1.21,0.24c0.16-1.88,0.63-3.75,1.41-5.6c0.78-1.85,1.84-3.56,3.18-5.12c1.34-1.56,2.94-2.82,4.8-3.79
			c1.85-0.97,3.94-1.45,6.25-1.45c0.97,0,1.91,0.2,2.82,0.6c0.91,0.4,1.37,1.06,1.37,1.97c0,0.81-0.22,1.42-0.65,1.85
			c-0.43,0.43-0.94,0.64-1.53,0.64c-0.48,0-1.01-0.13-1.57-0.4c-0.56-0.27-1.3-0.4-2.22-0.4c-1.51,0-3.01,0.44-4.51,1.33
			c-1.5,0.89-2.88,2.08-4.11,3.59c-1.24,1.5-2.22,3.18-2.94,5.04c-0.73,1.85-1.09,3.72-1.09,5.6v19.91c0,0.64-0.24,1.21-0.73,1.69
			C137.84,445.69,137.27,445.94,136.63,445.94z"/>
		<path class="st1" d="M179.83,446.74c-4.14,0-7.79-0.89-10.96-2.66c-3.17-1.77-5.64-4.25-7.42-7.42
			c-1.77-3.17-2.66-6.88-2.66-11.12c0-4.57,0.9-8.46,2.7-11.69c1.8-3.22,4.14-5.71,7.01-7.46c2.87-1.75,5.92-2.62,9.15-2.62
			c2.36,0,4.66,0.42,6.89,1.25c2.23,0.83,4.22,2.07,5.96,3.71c1.75,1.64,3.14,3.64,4.19,6c1.05,2.37,1.62,5.11,1.73,8.22
			c-0.05,0.64-0.32,1.2-0.81,1.65c-0.48,0.46-1.05,0.68-1.69,0.68h-32.32l-0.97-4.35h31.76l-1.05,0.97v-1.61
			c-0.27-2.53-1.1-4.66-2.5-6.41c-1.4-1.75-3.08-3.09-5.04-4.03c-1.96-0.94-4.02-1.41-6.17-1.41c-1.61,0-3.26,0.32-4.96,0.97
			c-1.69,0.64-3.22,1.65-4.59,3.02c-1.37,1.37-2.49,3.12-3.35,5.24c-0.86,2.12-1.29,4.63-1.29,7.54c0,3.17,0.65,6.04,1.93,8.62
			c1.29,2.58,3.16,4.62,5.6,6.13c2.44,1.5,5.36,2.26,8.75,2.26c1.88,0,3.56-0.27,5.04-0.81c1.48-0.54,2.79-1.25,3.95-2.14
			c1.16-0.89,2.11-1.81,2.86-2.78c0.59-0.48,1.15-0.73,1.69-0.73c0.59,0,1.09,0.21,1.49,0.64c0.4,0.43,0.6,0.91,0.6,1.45
			c0,0.64-0.27,1.21-0.81,1.69c-1.61,1.93-3.71,3.62-6.29,5.04C185.72,446.03,182.9,446.74,179.83,446.74z"/>
		<path class="st1" d="M226.99,443.44c-0.05,0.7-0.34,1.29-0.85,1.77c-0.51,0.48-1.09,0.73-1.73,0.73c-0.81,0-1.42-0.24-1.85-0.73
			c-0.43-0.48-0.64-1.07-0.64-1.77v-51.43c0-0.7,0.24-1.29,0.73-1.77c0.48-0.48,1.1-0.73,1.85-0.73c0.65,0,1.22,0.24,1.73,0.73
			c0.51,0.48,0.77,1.08,0.77,1.77V443.44z"/>
		<path class="st1" d="M270.59,386.29c0.7,0,1.28,0.24,1.73,0.73c0.46,0.48,0.69,1.05,0.69,1.69v54.81c0,0.64-0.24,1.21-0.73,1.69
			c-0.48,0.48-1.05,0.73-1.69,0.73c-0.75,0-1.34-0.24-1.77-0.73c-0.43-0.48-0.64-1.05-0.64-1.69v-9.59l1.37-1.13
			c0,1.56-0.4,3.16-1.21,4.8c-0.81,1.64-1.95,3.14-3.43,4.51c-1.48,1.37-3.2,2.49-5.16,3.35c-1.96,0.86-4.07,1.29-6.33,1.29
			c-3.6,0-6.84-0.94-9.71-2.82c-2.88-1.88-5.15-4.43-6.81-7.66c-1.67-3.22-2.5-6.9-2.5-11.04c0-4.08,0.83-7.75,2.5-11
			c1.67-3.25,3.92-5.8,6.77-7.66c2.85-1.85,6.05-2.78,9.59-2.78c2.26,0,4.38,0.4,6.37,1.21c1.99,0.81,3.75,1.91,5.28,3.3
			c1.53,1.4,2.74,3,3.63,4.8c0.89,1.8,1.33,3.67,1.33,5.6l-1.69-1.21v-28.78c0-0.65,0.21-1.21,0.64-1.69
			C269.25,386.53,269.84,386.29,270.59,386.29z M253.83,442.23c2.9,0,5.44-0.74,7.62-2.22c2.18-1.48,3.9-3.49,5.16-6.04
			c1.26-2.55,1.89-5.47,1.89-8.75c0-3.22-0.63-6.11-1.89-8.67c-1.26-2.55-3-4.55-5.2-6.01c-2.2-1.45-4.73-2.18-7.58-2.18
			c-2.79,0-5.31,0.73-7.54,2.18c-2.23,1.45-3.98,3.45-5.24,6.01c-1.26,2.55-1.89,5.44-1.89,8.67c0,3.22,0.63,6.13,1.89,8.71
			c1.26,2.58,3.01,4.61,5.24,6.09C248.52,441.49,251.03,442.23,253.83,442.23z"/>
		<path class="st1" d="M300.26,446.74c-4.14,0-7.79-0.89-10.96-2.66c-3.17-1.77-5.64-4.25-7.42-7.42
			c-1.77-3.17-2.66-6.88-2.66-11.12c0-4.57,0.9-8.46,2.7-11.69c1.8-3.22,4.14-5.71,7.01-7.46c2.87-1.75,5.92-2.62,9.15-2.62
			c2.36,0,4.66,0.42,6.89,1.25c2.23,0.83,4.22,2.07,5.96,3.71c1.75,1.64,3.14,3.64,4.19,6c1.05,2.37,1.62,5.11,1.73,8.22
			c-0.05,0.64-0.32,1.2-0.81,1.65c-0.48,0.46-1.05,0.68-1.69,0.68h-32.32l-0.97-4.35h31.76l-1.05,0.97v-1.61
			c-0.27-2.53-1.1-4.66-2.5-6.41c-1.4-1.75-3.08-3.09-5.04-4.03c-1.96-0.94-4.02-1.41-6.17-1.41c-1.61,0-3.26,0.32-4.96,0.97
			c-1.69,0.64-3.22,1.65-4.59,3.02c-1.37,1.37-2.49,3.12-3.35,5.24c-0.86,2.12-1.29,4.63-1.29,7.54c0,3.17,0.65,6.04,1.93,8.62
			c1.29,2.58,3.16,4.62,5.6,6.13c2.44,1.5,5.36,2.26,8.75,2.26c1.88,0,3.56-0.27,5.04-0.81c1.48-0.54,2.79-1.25,3.95-2.14
			c1.16-0.89,2.11-1.81,2.86-2.78c0.59-0.48,1.15-0.73,1.69-0.73c0.59,0,1.09,0.21,1.49,0.64c0.4,0.43,0.6,0.91,0.6,1.45
			c0,0.64-0.27,1.21-0.81,1.69c-1.61,1.93-3.71,3.62-6.29,5.04C306.14,446.03,303.32,446.74,300.26,446.74z"/>
		<path class="st1" d="M356.92,404.75c0.7,0,1.28,0.24,1.73,0.73c0.46,0.48,0.69,1.08,0.69,1.77v36.27c0,0.64-0.24,1.21-0.73,1.69
			c-0.48,0.48-1.05,0.73-1.69,0.73c-0.75,0-1.34-0.24-1.77-0.73c-0.43-0.48-0.64-1.05-0.64-1.69v-9.59l1.37-0.56
			c0,1.45-0.42,2.97-1.25,4.55c-0.83,1.59-1.97,3.04-3.43,4.35c-1.45,1.32-3.16,2.39-5.12,3.22c-1.96,0.83-4.07,1.25-6.33,1.25
			c-3.66,0-6.92-0.94-9.79-2.82c-2.88-1.88-5.13-4.46-6.77-7.74c-1.64-3.28-2.46-6.96-2.46-11.04c0-4.19,0.83-7.89,2.5-11.08
			c1.67-3.2,3.92-5.71,6.77-7.54c2.85-1.83,6.05-2.74,9.59-2.74c2.31,0,4.47,0.4,6.49,1.21s3.77,1.91,5.28,3.3
			c1.5,1.4,2.69,3,3.55,4.8c0.86,1.8,1.29,3.67,1.29,5.6l-1.69-1.21v-10.24c0-0.7,0.21-1.29,0.64-1.77
			C355.58,404.99,356.17,404.75,356.92,404.75z M340.16,442.23c2.85,0,5.37-0.74,7.58-2.22c2.2-1.48,3.94-3.52,5.2-6.13
			c1.26-2.61,1.89-5.52,1.89-8.75c0-3.12-0.63-5.95-1.89-8.5c-1.26-2.55-3-4.57-5.2-6.04c-2.2-1.48-4.73-2.22-7.58-2.22
			c-2.79,0-5.31,0.71-7.54,2.14c-2.23,1.42-3.98,3.4-5.24,5.92c-1.26,2.53-1.89,5.43-1.89,8.71c0,3.22,0.63,6.14,1.89,8.75
			c1.26,2.61,3,4.65,5.2,6.13C334.78,441.49,337.31,442.23,340.16,442.23z"/>
		<path class="st1" d="M365.63,439.41c-0.43-0.64-0.63-1.28-0.6-1.89c0.03-0.62,0.36-1.11,1.01-1.49c0.43-0.38,0.93-0.54,1.49-0.48
			c0.56,0.05,1.09,0.32,1.57,0.81c1.45,1.88,3.21,3.4,5.28,4.55c2.07,1.16,4.53,1.73,7.38,1.73c1.5,0,3-0.25,4.47-0.77
			c1.48-0.51,2.7-1.29,3.67-2.34s1.45-2.38,1.45-3.99c0-1.67-0.48-3-1.45-3.99c-0.97-0.99-2.22-1.8-3.75-2.42
			c-1.53-0.62-3.18-1.14-4.96-1.57c-1.83-0.48-3.59-1.03-5.28-1.65c-1.69-0.62-3.21-1.4-4.55-2.34c-1.34-0.94-2.41-2.08-3.18-3.43
			c-0.78-1.34-1.17-2.98-1.17-4.92c0-2.26,0.6-4.25,1.81-5.96s2.89-3.06,5.04-4.03c2.15-0.97,4.54-1.45,7.17-1.45
			c1.4,0,2.87,0.17,4.43,0.52c1.56,0.35,3.09,0.93,4.59,1.73c1.5,0.81,2.85,1.91,4.03,3.3c0.48,0.48,0.73,1.04,0.73,1.65
			c0,0.62-0.27,1.2-0.81,1.73c-0.43,0.32-0.93,0.47-1.49,0.44c-0.56-0.03-1.04-0.25-1.41-0.69c-1.29-1.45-2.82-2.54-4.59-3.26
			c-1.77-0.73-3.68-1.09-5.72-1.09c-1.56,0-3.02,0.24-4.39,0.73c-1.37,0.48-2.51,1.24-3.43,2.26c-0.91,1.02-1.37,2.37-1.37,4.03
			c0.11,1.56,0.66,2.82,1.65,3.79c0.99,0.97,2.31,1.77,3.95,2.42c1.64,0.64,3.48,1.24,5.52,1.77c1.72,0.43,3.37,0.94,4.96,1.53
			c1.58,0.59,2.98,1.33,4.19,2.22c1.21,0.89,2.18,2,2.9,3.34c0.73,1.34,1.09,3.04,1.09,5.08c0,2.37-0.66,4.41-1.97,6.13
			c-1.32,1.72-3.08,3.04-5.28,3.95c-2.2,0.91-4.65,1.37-7.34,1.37c-2.9,0-5.71-0.56-8.42-1.69
			C370.13,443.92,367.72,442.04,365.63,439.41z"/>
		<path class="st1" d="M408.19,446.58c0,1.45-0.43,2.86-1.29,4.23c-0.86,1.37-1.91,2.5-3.14,3.39c-1.24,0.89-2.45,1.33-3.63,1.33
			c-0.43,0-0.85-0.13-1.25-0.4c-0.4-0.27-0.6-0.75-0.6-1.45c0-0.81,0.25-1.25,0.77-1.33c0.51-0.08,1.14-0.34,1.89-0.77
			c0.91-0.43,1.61-0.97,2.1-1.61c0.48-0.64,0.73-1.4,0.73-2.26c0-0.7-0.2-1.24-0.6-1.61c-0.4-0.38-0.87-0.56-1.41-0.56
			c-0.38,0-0.75,0.05-1.13,0.16c-0.38,0.11-0.73,0.27-1.05,0.48c-0.27-0.27-0.51-0.56-0.73-0.89c-0.22-0.32-0.3-0.73-0.24-1.21
			c0.05-0.91,0.54-1.71,1.45-2.38c0.91-0.67,1.96-1.01,3.14-1.01c1.45,0,2.65,0.59,3.59,1.77
			C407.71,443.65,408.19,445.02,408.19,446.58z"/>
		<path class="st1" d="M437.61,443.44c-0.05,0.7-0.34,1.29-0.85,1.77s-1.09,0.73-1.73,0.73c-0.81,0-1.42-0.24-1.85-0.73
			c-0.43-0.48-0.64-1.07-0.64-1.77v-51.43c0-0.7,0.24-1.29,0.73-1.77s1.1-0.73,1.85-0.73c0.65,0,1.22,0.24,1.73,0.73
			c0.51,0.48,0.77,1.08,0.77,1.77V443.44z"/>
		<path class="st1" d="M466.87,403.78c3.55,0,6.38,0.71,8.5,2.14c2.12,1.42,3.65,3.36,4.59,5.8c0.94,2.45,1.41,5.15,1.41,8.1v23.7
			c0,0.64-0.24,1.21-0.73,1.69s-1.05,0.73-1.69,0.73c-0.75,0-1.36-0.24-1.81-0.73c-0.46-0.48-0.68-1.05-0.68-1.69v-23.46
			c0-2.15-0.35-4.11-1.05-5.88c-0.7-1.77-1.83-3.18-3.39-4.23c-1.56-1.05-3.63-1.57-6.21-1.57c-2.31,0-4.5,0.52-6.57,1.57
			c-2.07,1.05-3.75,2.46-5.04,4.23c-1.29,1.77-1.93,3.74-1.93,5.88v23.46c0,0.64-0.24,1.21-0.73,1.69
			c-0.48,0.48-1.05,0.73-1.69,0.73c-0.75,0-1.36-0.24-1.81-0.73c-0.46-0.48-0.69-1.05-0.69-1.69v-36.11c0-0.64,0.24-1.21,0.73-1.69
			s1.07-0.73,1.77-0.73c0.7,0,1.28,0.24,1.73,0.73c0.46,0.48,0.68,1.05,0.68,1.69v6.77l-1.85,2.9c0.11-1.72,0.66-3.37,1.65-4.96
			c0.99-1.58,2.27-3.01,3.83-4.27c1.56-1.26,3.29-2.26,5.2-2.98C463.01,404.14,464.93,403.78,466.87,403.78z"/>
		<path class="st1" d="M487.66,439.41c-0.43-0.64-0.63-1.28-0.6-1.89c0.03-0.62,0.36-1.11,1.01-1.49c0.43-0.38,0.93-0.54,1.49-0.48
			c0.56,0.05,1.09,0.32,1.57,0.81c1.45,1.88,3.21,3.4,5.28,4.55c2.07,1.16,4.53,1.73,7.38,1.73c1.5,0,3-0.25,4.47-0.77
			c1.48-0.51,2.7-1.29,3.67-2.34c0.97-1.05,1.45-2.38,1.45-3.99c0-1.67-0.48-3-1.45-3.99c-0.97-0.99-2.22-1.8-3.75-2.42
			c-1.53-0.62-3.18-1.14-4.96-1.57c-1.83-0.48-3.59-1.03-5.28-1.65c-1.69-0.62-3.21-1.4-4.55-2.34c-1.34-0.94-2.41-2.08-3.18-3.43
			c-0.78-1.34-1.17-2.98-1.17-4.92c0-2.26,0.6-4.25,1.81-5.96c1.21-1.72,2.89-3.06,5.04-4.03c2.15-0.97,4.54-1.45,7.17-1.45
			c1.4,0,2.88,0.17,4.43,0.52c1.56,0.35,3.09,0.93,4.59,1.73c1.5,0.81,2.85,1.91,4.03,3.3c0.48,0.48,0.73,1.04,0.73,1.65
			c0,0.62-0.27,1.2-0.81,1.73c-0.43,0.32-0.93,0.47-1.49,0.44c-0.56-0.03-1.04-0.25-1.41-0.69c-1.29-1.45-2.82-2.54-4.59-3.26
			s-3.68-1.09-5.72-1.09c-1.56,0-3.02,0.24-4.39,0.73c-1.37,0.48-2.51,1.24-3.43,2.26c-0.91,1.02-1.37,2.37-1.37,4.03
			c0.11,1.56,0.66,2.82,1.65,3.79c0.99,0.97,2.31,1.77,3.95,2.42c1.64,0.64,3.48,1.24,5.52,1.77c1.72,0.43,3.37,0.94,4.96,1.53
			c1.58,0.59,2.98,1.33,4.19,2.22s2.18,2,2.9,3.34c0.73,1.34,1.09,3.04,1.09,5.08c0,2.37-0.66,4.41-1.97,6.13
			c-1.32,1.72-3.08,3.04-5.28,3.95c-2.2,0.91-4.65,1.37-7.33,1.37c-2.9,0-5.71-0.56-8.42-1.69
			C492.16,443.92,489.76,442.04,487.66,439.41z"/>
		<path class="st1" d="M543.36,404.42c3.65,0,6.89,0.9,9.71,2.7c2.82,1.8,5.06,4.27,6.73,7.42c1.67,3.14,2.5,6.76,2.5,10.84
			c0,4.08-0.83,7.71-2.5,10.88c-1.67,3.17-3.92,5.67-6.77,7.5c-2.85,1.83-6.04,2.74-9.59,2.74c-1.88,0-3.67-0.28-5.36-0.85
			s-3.24-1.33-4.63-2.3c-1.4-0.97-2.63-2.11-3.71-3.43c-1.08-1.32-1.93-2.73-2.58-4.23l1.45-1.13v25.07c0,0.64-0.23,1.21-0.68,1.69
			c-0.46,0.48-1.04,0.73-1.73,0.73c-0.7,0-1.29-0.24-1.77-0.73c-0.48-0.48-0.73-1.05-0.73-1.69v-52.56c0-0.7,0.23-1.29,0.69-1.77
			c0.46-0.48,1.06-0.73,1.81-0.73c0.7,0,1.28,0.24,1.73,0.73c0.46,0.48,0.68,1.08,0.68,1.77v8.71l-1.13-0.64
			c0.54-1.67,1.33-3.16,2.38-4.47c1.05-1.32,2.27-2.44,3.67-3.39c1.4-0.94,2.93-1.65,4.59-2.14
			C539.79,404.67,541.53,404.42,543.36,404.42z M542.96,408.94c-2.9,0-5.46,0.71-7.66,2.14c-2.2,1.42-3.94,3.36-5.2,5.8
			s-1.89,5.28-1.89,8.5c0,3.17,0.63,6.02,1.89,8.54c1.26,2.53,3,4.5,5.2,5.92c2.2,1.42,4.76,2.14,7.66,2.14
			c2.85,0,5.36-0.71,7.54-2.14c2.18-1.42,3.9-3.4,5.16-5.92c1.26-2.53,1.89-5.37,1.89-8.54c0-3.17-0.63-5.99-1.89-8.46
			c-1.26-2.47-2.98-4.42-5.16-5.84C548.32,409.65,545.81,408.94,542.96,408.94z"/>
		<path class="st1" d="M570.85,398.62c-1.13,0-1.97-0.25-2.54-0.77c-0.56-0.51-0.85-1.25-0.85-2.22v-0.81
			c0-0.97,0.31-1.71,0.93-2.22c0.62-0.51,1.46-0.77,2.54-0.77c1.02,0,1.81,0.25,2.38,0.77c0.56,0.51,0.85,1.25,0.85,2.22v0.81
			c0,0.97-0.28,1.71-0.85,2.22C572.74,398.37,571.92,398.62,570.85,398.62z M573.26,443.52c0,0.64-0.24,1.21-0.73,1.69
			c-0.48,0.48-1.05,0.73-1.69,0.73c-0.75,0-1.34-0.24-1.77-0.73c-0.43-0.48-0.64-1.05-0.64-1.69v-37.08c0-0.65,0.23-1.21,0.68-1.69
			c0.46-0.48,1.03-0.73,1.73-0.73c0.7,0,1.28,0.24,1.73,0.73c0.46,0.48,0.68,1.05,0.68,1.69V443.52z"/>
		<path class="st1" d="M584.23,445.94c-0.75,0-1.36-0.24-1.81-0.73c-0.46-0.48-0.69-1.05-0.69-1.69v-36.11
			c0-0.64,0.24-1.21,0.73-1.69s1.07-0.73,1.77-0.73c0.7,0,1.28,0.24,1.73,0.73c0.46,0.48,0.68,1.05,0.68,1.69v12.09l-1.21,0.24
			c0.16-1.88,0.63-3.75,1.41-5.6c0.78-1.85,1.84-3.56,3.18-5.12c1.34-1.56,2.94-2.82,4.8-3.79c1.85-0.97,3.94-1.45,6.25-1.45
			c0.97,0,1.91,0.2,2.82,0.6c0.91,0.4,1.37,1.06,1.37,1.97c0,0.81-0.21,1.42-0.64,1.85c-0.43,0.43-0.94,0.64-1.53,0.64
			c-0.48,0-1.01-0.13-1.57-0.4c-0.56-0.27-1.3-0.4-2.22-0.4c-1.5,0-3.01,0.44-4.51,1.33c-1.5,0.89-2.88,2.08-4.11,3.59
			c-1.24,1.5-2.22,3.18-2.94,5.04c-0.73,1.85-1.09,3.72-1.09,5.6v19.91c0,0.64-0.24,1.21-0.73,1.69
			C585.44,445.69,584.87,445.94,584.23,445.94z"/>
		<path class="st1" d="M627.43,446.74c-4.14,0-7.79-0.89-10.96-2.66c-3.17-1.77-5.64-4.25-7.42-7.42
			c-1.77-3.17-2.66-6.88-2.66-11.12c0-4.57,0.9-8.46,2.7-11.69c1.8-3.22,4.14-5.71,7.01-7.46c2.87-1.75,5.92-2.62,9.15-2.62
			c2.36,0,4.66,0.42,6.89,1.25c2.23,0.83,4.22,2.07,5.96,3.71c1.75,1.64,3.14,3.64,4.19,6c1.05,2.37,1.62,5.11,1.73,8.22
			c-0.05,0.64-0.32,1.2-0.81,1.65c-0.48,0.46-1.05,0.68-1.69,0.68h-32.32l-0.97-4.35h31.76l-1.05,0.97v-1.61
			c-0.27-2.53-1.1-4.66-2.5-6.41c-1.4-1.75-3.08-3.09-5.04-4.03c-1.96-0.94-4.02-1.41-6.17-1.41c-1.61,0-3.26,0.32-4.96,0.97
			c-1.69,0.64-3.22,1.65-4.59,3.02s-2.49,3.12-3.34,5.24c-0.86,2.12-1.29,4.63-1.29,7.54c0,3.17,0.64,6.04,1.93,8.62
			c1.29,2.58,3.16,4.62,5.6,6.13c2.44,1.5,5.36,2.26,8.75,2.26c1.88,0,3.56-0.27,5.04-0.81c1.48-0.54,2.79-1.25,3.95-2.14
			c1.15-0.89,2.11-1.81,2.86-2.78c0.59-0.48,1.16-0.73,1.69-0.73c0.59,0,1.09,0.21,1.49,0.64c0.4,0.43,0.6,0.91,0.6,1.45
			c0,0.64-0.27,1.21-0.81,1.69c-1.61,1.93-3.71,3.62-6.29,5.04C633.31,446.03,630.49,446.74,627.43,446.74z"/>
		<path class="st1" d="M671.92,389.51c0.38,0,0.77,0.09,1.17,0.28c0.4,0.19,0.74,0.44,1.01,0.77l22.25,33.37l-2.18-0.08l22.33-33.29
			c0.59-0.81,1.32-1.16,2.18-1.05c0.65,0,1.2,0.23,1.65,0.69c0.46,0.46,0.69,1.04,0.69,1.73v51.59c0,0.64-0.26,1.21-0.77,1.69
			c-0.51,0.48-1.12,0.73-1.81,0.73c-0.7,0-1.29-0.24-1.77-0.73c-0.48-0.48-0.73-1.05-0.73-1.69v-46.67l1.45,0.16l-20.39,30.87
			c-0.16,0.32-0.42,0.58-0.77,0.77c-0.35,0.19-0.71,0.28-1.09,0.28c-0.38,0-0.74-0.09-1.09-0.28c-0.35-0.19-0.63-0.44-0.85-0.77
			l-20.47-31.2l1.53-1.05v47.88c0,0.64-0.23,1.21-0.69,1.69c-0.46,0.48-1.04,0.73-1.73,0.73c-0.7,0-1.26-0.24-1.69-0.73
			c-0.43-0.48-0.64-1.05-0.64-1.69v-51.59c0-0.59,0.23-1.14,0.69-1.65C670.65,389.77,671.23,389.51,671.92,389.51z"/>
		<path class="st1" d="M733.1,398.62c-1.13,0-1.97-0.25-2.54-0.77c-0.56-0.51-0.85-1.25-0.85-2.22v-0.81c0-0.97,0.31-1.71,0.93-2.22
			c0.62-0.51,1.46-0.77,2.54-0.77c1.02,0,1.81,0.25,2.38,0.77c0.56,0.51,0.85,1.25,0.85,2.22v0.81c0,0.97-0.28,1.71-0.85,2.22
			C735,398.37,734.18,398.62,733.1,398.62z M735.52,443.52c0,0.64-0.24,1.21-0.73,1.69c-0.48,0.48-1.05,0.73-1.69,0.73
			c-0.75,0-1.34-0.24-1.77-0.73c-0.43-0.48-0.64-1.05-0.64-1.69v-37.08c0-0.65,0.23-1.21,0.68-1.69c0.46-0.48,1.03-0.73,1.73-0.73
			c0.7,0,1.28,0.24,1.73,0.73c0.46,0.48,0.68,1.05,0.68,1.69V443.52z"/>
		<path class="st1" d="M763.49,403.78c3.55,0,6.38,0.71,8.5,2.14c2.12,1.42,3.65,3.36,4.59,5.8c0.94,2.45,1.41,5.15,1.41,8.1v23.7
			c0,0.64-0.24,1.21-0.73,1.69s-1.05,0.73-1.69,0.73c-0.75,0-1.36-0.24-1.81-0.73c-0.46-0.48-0.68-1.05-0.68-1.69v-23.46
			c0-2.15-0.35-4.11-1.05-5.88c-0.7-1.77-1.83-3.18-3.39-4.23c-1.56-1.05-3.63-1.57-6.21-1.57c-2.31,0-4.5,0.52-6.57,1.57
			c-2.07,1.05-3.75,2.46-5.04,4.23c-1.29,1.77-1.93,3.74-1.93,5.88v23.46c0,0.64-0.24,1.21-0.73,1.69
			c-0.48,0.48-1.05,0.73-1.69,0.73c-0.75,0-1.36-0.24-1.81-0.73c-0.46-0.48-0.69-1.05-0.69-1.69v-36.11c0-0.64,0.24-1.21,0.73-1.69
			s1.07-0.73,1.77-0.73c0.7,0,1.28,0.24,1.73,0.73c0.46,0.48,0.68,1.05,0.68,1.69v6.77l-1.85,2.9c0.11-1.72,0.66-3.37,1.65-4.96
			c0.99-1.58,2.27-3.01,3.83-4.27c1.56-1.26,3.29-2.26,5.2-2.98C759.64,404.14,761.56,403.78,763.49,403.78z"/>
		<path class="st1" d="M820.4,386.29c0.7,0,1.28,0.24,1.73,0.73c0.46,0.48,0.69,1.05,0.69,1.69v54.81c0,0.64-0.24,1.21-0.73,1.69
			s-1.05,0.73-1.69,0.73c-0.75,0-1.34-0.24-1.77-0.73c-0.43-0.48-0.65-1.05-0.65-1.69v-9.59l1.37-1.13c0,1.56-0.4,3.16-1.21,4.8
			c-0.81,1.64-1.95,3.14-3.43,4.51c-1.48,1.37-3.2,2.49-5.16,3.35c-1.96,0.86-4.07,1.29-6.33,1.29c-3.6,0-6.84-0.94-9.71-2.82
			c-2.88-1.88-5.15-4.43-6.81-7.66c-1.67-3.22-2.5-6.9-2.5-11.04c0-4.08,0.83-7.75,2.5-11c1.67-3.25,3.92-5.8,6.77-7.66
			c2.85-1.85,6.04-2.78,9.59-2.78c2.26,0,4.38,0.4,6.37,1.21c1.99,0.81,3.75,1.91,5.28,3.3c1.53,1.4,2.74,3,3.63,4.8
			c0.89,1.8,1.33,3.67,1.33,5.6l-1.69-1.21v-28.78c0-0.65,0.21-1.21,0.65-1.69C819.06,386.53,819.65,386.29,820.4,386.29z
			 M803.63,442.23c2.9,0,5.44-0.74,7.62-2.22c2.18-1.48,3.9-3.49,5.16-6.04c1.26-2.55,1.89-5.47,1.89-8.75
			c0-3.22-0.63-6.11-1.89-8.67c-1.26-2.55-3-4.55-5.2-6.01c-2.2-1.45-4.73-2.18-7.58-2.18c-2.79,0-5.31,0.73-7.54,2.18
			c-2.23,1.45-3.98,3.45-5.24,6.01c-1.26,2.55-1.89,5.44-1.89,8.67c0,3.22,0.63,6.13,1.89,8.71c1.26,2.58,3.01,4.61,5.24,6.09
			C798.33,441.49,800.84,442.23,803.63,442.23z"/>
		<path class="st1" d="M829.1,439.41c-0.43-0.64-0.63-1.28-0.6-1.89c0.03-0.62,0.36-1.11,1.01-1.49c0.43-0.38,0.93-0.54,1.49-0.48
			c0.56,0.05,1.09,0.32,1.57,0.81c1.45,1.88,3.21,3.4,5.28,4.55c2.07,1.16,4.53,1.73,7.38,1.73c1.5,0,3-0.25,4.47-0.77
			c1.48-0.51,2.7-1.29,3.67-2.34c0.97-1.05,1.45-2.38,1.45-3.99c0-1.67-0.48-3-1.45-3.99c-0.97-0.99-2.22-1.8-3.75-2.42
			c-1.53-0.62-3.18-1.14-4.96-1.57c-1.83-0.48-3.59-1.03-5.28-1.65c-1.69-0.62-3.21-1.4-4.55-2.34c-1.34-0.94-2.41-2.08-3.18-3.43
			c-0.78-1.34-1.17-2.98-1.17-4.92c0-2.26,0.6-4.25,1.81-5.96c1.21-1.72,2.89-3.06,5.04-4.03c2.15-0.97,4.54-1.45,7.17-1.45
			c1.4,0,2.88,0.17,4.43,0.52c1.56,0.35,3.09,0.93,4.59,1.73c1.5,0.81,2.85,1.91,4.03,3.3c0.48,0.48,0.73,1.04,0.73,1.65
			c0,0.62-0.27,1.2-0.81,1.73c-0.43,0.32-0.93,0.47-1.49,0.44c-0.56-0.03-1.04-0.25-1.41-0.69c-1.29-1.45-2.82-2.54-4.59-3.26
			s-3.68-1.09-5.72-1.09c-1.56,0-3.02,0.24-4.39,0.73c-1.37,0.48-2.51,1.24-3.43,2.26c-0.91,1.02-1.37,2.37-1.37,4.03
			c0.11,1.56,0.66,2.82,1.65,3.79c0.99,0.97,2.31,1.77,3.95,2.42c1.64,0.64,3.48,1.24,5.52,1.77c1.72,0.43,3.37,0.94,4.96,1.53
			c1.58,0.59,2.98,1.33,4.19,2.22s2.18,2,2.9,3.34c0.73,1.34,1.09,3.04,1.09,5.08c0,2.37-0.66,4.41-1.97,6.13
			c-1.32,1.72-3.08,3.04-5.28,3.95c-2.2,0.91-4.65,1.37-7.33,1.37c-2.9,0-5.71-0.56-8.42-1.69
			C833.6,443.92,831.2,442.04,829.1,439.41z"/>
	</g>
</g>
</svg>
